<svg width="339" height="40" viewBox="0 0 339 40" fill="none" xmlns="http://www.w3.org/2000/svg">
<g clip-path="url(#clip0_38_529)">
<rect width="40" height="40" rx="16" fill="#494949"/>
<path d="M20 0C20 14 6.66667 19.1667 0 20H40C24.8 20 20.3333 6.66667 20 0Z" fill="url(#paint0_linear_38_529)"/>
<path d="M20 31C20 17 33.3333 11.8333 40 11L1.74846e-06 11C15.2 11 19.6667 24.3333 20 31Z" fill="url(#paint1_linear_38_529)"/>
<path d="M20 40C20 26 6.66666 20.8333 -1.74846e-06 20L40 20C24.8 20 20.3333 33.3333 20 40Z" fill="url(#paint2_linear_38_529)"/>
</g>
<path d="M66.304 17.7244H62.7528C62.7055 17.3598 62.6084 17.0308 62.4616 16.7372C62.3149 16.4437 62.1207 16.1927 61.8793 15.9844C61.6378 15.776 61.3513 15.6174 61.0199 15.5085C60.6932 15.3949 60.331 15.3381 59.9332 15.3381C59.2277 15.3381 58.6193 15.5109 58.108 15.8565C57.6013 16.2022 57.2107 16.7017 56.9361 17.3551C56.6662 18.0085 56.5312 18.7992 56.5312 19.7273C56.5312 20.6932 56.6686 21.5028 56.9432 22.1562C57.2225 22.8049 57.6132 23.295 58.1151 23.6264C58.6217 23.9531 59.2206 24.1165 59.9119 24.1165C60.3002 24.1165 60.6529 24.0668 60.9702 23.9673C61.2921 23.8679 61.5739 23.7235 61.8153 23.5341C62.0616 23.34 62.2628 23.1056 62.419 22.831C62.58 22.5516 62.6913 22.2367 62.7528 21.8864L66.304 21.9077C66.2424 22.5516 66.0554 23.1861 65.7429 23.8111C65.4351 24.4361 65.0114 25.0066 64.4716 25.5227C63.9318 26.0341 63.2737 26.4413 62.4972 26.7443C61.7254 27.0473 60.84 27.1989 59.8409 27.1989C58.5246 27.1989 57.3456 26.91 56.304 26.3324C55.267 25.75 54.4479 24.9025 53.8466 23.7898C53.2453 22.6771 52.9446 21.3229 52.9446 19.7273C52.9446 18.1269 53.25 16.7704 53.8608 15.6577C54.4716 14.545 55.2978 13.6998 56.3395 13.1222C57.3812 12.5445 58.5483 12.2557 59.8409 12.2557C60.7216 12.2557 61.536 12.3788 62.2841 12.625C63.0322 12.8665 63.6903 13.2216 64.2585 13.6903C64.8267 14.1544 65.2884 14.7249 65.6435 15.402C65.9986 16.0791 66.2188 16.8532 66.304 17.7244ZM73.344 27.206C72.1982 27.206 71.2133 26.9716 70.3895 26.5028C69.5704 26.0294 68.9382 25.3712 68.4932 24.5284C68.0528 23.6809 67.8327 22.6984 67.8327 21.581C67.8327 20.4588 68.0528 19.4763 68.4932 18.6335C68.9382 17.786 69.5704 17.1278 70.3895 16.6591C71.2133 16.1856 72.1982 15.9489 73.344 15.9489C74.4899 15.9489 75.4723 16.1856 76.2915 16.6591C77.1153 17.1278 77.7474 17.786 78.1878 18.6335C78.6329 19.4763 78.8554 20.4588 78.8554 21.581C78.8554 22.6984 78.6329 23.6809 78.1878 24.5284C77.7474 25.3712 77.1153 26.0294 76.2915 26.5028C75.4723 26.9716 74.4899 27.206 73.344 27.206ZM73.3653 24.5852C73.782 24.5852 74.1347 24.4574 74.4236 24.2017C74.7124 23.946 74.9326 23.5909 75.0841 23.1364C75.2403 22.6818 75.3185 22.1562 75.3185 21.5597C75.3185 20.9536 75.2403 20.4233 75.0841 19.9688C74.9326 19.5142 74.7124 19.1591 74.4236 18.9034C74.1347 18.6477 73.782 18.5199 73.3653 18.5199C72.9345 18.5199 72.5699 18.6477 72.2716 18.9034C71.978 19.1591 71.7531 19.5142 71.5969 19.9688C71.4454 20.4233 71.3696 20.9536 71.3696 21.5597C71.3696 22.1562 71.4454 22.6818 71.5969 23.1364C71.7531 23.5909 71.978 23.946 72.2716 24.2017C72.5699 24.4574 72.9345 24.5852 73.3653 24.5852ZM90.0947 19.4219L86.9057 19.5071C86.8726 19.2798 86.7826 19.0786 86.6358 18.9034C86.4891 18.7235 86.2973 18.5838 86.0606 18.4844C85.8286 18.3802 85.5587 18.3281 85.2509 18.3281C84.8484 18.3281 84.5052 18.4086 84.2211 18.5696C83.9417 18.7306 83.8044 18.9484 83.8091 19.223C83.8044 19.4361 83.8896 19.6207 84.0648 19.777C84.2448 19.9332 84.5644 20.0587 85.0236 20.1534L87.1259 20.5511C88.2149 20.7595 89.0246 21.1051 89.5549 21.5881C90.0899 22.071 90.3598 22.7102 90.3645 23.5057C90.3598 24.2538 90.1373 24.9048 89.6969 25.4588C89.2613 26.0128 88.6647 26.4437 87.9072 26.7514C87.1496 27.0545 86.2831 27.206 85.3077 27.206C83.75 27.206 82.5213 26.8864 81.6216 26.2472C80.7268 25.6032 80.2154 24.7415 80.0876 23.6619L83.518 23.5767C83.5937 23.9744 83.7902 24.2775 84.1074 24.4858C84.4247 24.6941 84.8295 24.7983 85.3219 24.7983C85.767 24.7983 86.1292 24.7154 86.4086 24.5497C86.6879 24.384 86.83 24.1638 86.8347 23.8892C86.83 23.643 86.7211 23.4465 86.508 23.2997C86.2949 23.1482 85.9611 23.0298 85.5066 22.9446L83.6032 22.5824C82.5094 22.3835 81.695 22.0166 81.16 21.4815C80.625 20.9418 80.3598 20.2552 80.3645 19.4219C80.3598 18.6927 80.5539 18.0701 80.9469 17.554C81.3399 17.0331 81.8986 16.6354 82.6231 16.3608C83.3475 16.0862 84.2021 15.9489 85.187 15.9489C86.6643 15.9489 87.829 16.259 88.6813 16.8793C89.5336 17.4948 90.0047 18.3423 90.0947 19.4219ZM92.0104 27V16.0909H95.313V18.0938H95.4337C95.661 17.4309 96.0445 16.9077 96.5843 16.5241C97.124 16.1406 97.768 15.9489 98.5161 15.9489C99.2737 15.9489 99.9223 16.143 100.462 16.5312C101.002 16.9195 101.345 17.4403 101.492 18.0938H101.606C101.809 17.4451 102.207 16.9266 102.799 16.5384C103.391 16.1454 104.089 15.9489 104.894 15.9489C105.926 15.9489 106.764 16.2803 107.408 16.9432C108.052 17.6013 108.374 18.5057 108.374 19.6562V27H104.901V20.4517C104.901 19.9072 104.761 19.4929 104.482 19.2088C104.203 18.92 103.84 18.7756 103.395 18.7756C102.917 18.7756 102.541 18.9318 102.266 19.2443C101.996 19.5521 101.861 19.9664 101.861 20.4872V27H98.5232V20.4162C98.5232 19.9096 98.3859 19.5095 98.1113 19.2159C97.8366 18.9223 97.4744 18.7756 97.0246 18.7756C96.7216 18.7756 96.4541 18.849 96.2221 18.9957C95.9901 19.1378 95.8078 19.3414 95.6752 19.6065C95.5473 19.8717 95.4834 20.1842 95.4834 20.544V27H92.0104ZM110.462 31.0909V16.0909H113.9V17.9588H114.006C114.148 17.6274 114.349 17.3078 114.61 17C114.875 16.6922 115.211 16.4413 115.618 16.2472C116.03 16.0483 116.523 15.9489 117.096 15.9489C117.853 15.9489 118.561 16.1477 119.219 16.5455C119.882 16.9432 120.417 17.5563 120.824 18.3849C121.231 19.2135 121.435 20.2694 121.435 21.5526C121.435 22.7884 121.239 23.8229 120.846 24.6562C120.457 25.4896 119.932 26.1146 119.269 26.5312C118.611 26.9479 117.879 27.1562 117.074 27.1562C116.525 27.1562 116.049 27.0663 115.647 26.8864C115.244 26.7064 114.906 26.4697 114.631 26.1761C114.361 25.8826 114.153 25.5677 114.006 25.2315H113.935V31.0909H110.462ZM113.864 21.5455C113.864 22.1326 113.942 22.6439 114.098 23.0795C114.259 23.5152 114.489 23.8537 114.787 24.0952C115.09 24.3319 115.453 24.4503 115.874 24.4503C116.3 24.4503 116.662 24.3319 116.961 24.0952C117.259 23.8537 117.484 23.5152 117.635 23.0795C117.792 22.6439 117.87 22.1326 117.87 21.5455C117.87 20.9583 117.792 20.4493 117.635 20.0185C117.484 19.5876 117.259 19.2538 116.961 19.017C116.667 18.7803 116.305 18.6619 115.874 18.6619C115.448 18.6619 115.086 18.7779 114.787 19.0099C114.489 19.242 114.259 19.5734 114.098 20.0043C113.942 20.4351 113.864 20.9489 113.864 21.5455ZM126.266 27.1847C125.57 27.1847 124.952 27.0687 124.413 26.8366C123.878 26.5999 123.454 26.2448 123.141 25.7713C122.834 25.2931 122.68 24.6941 122.68 23.9744C122.68 23.3684 122.786 22.857 122.999 22.4403C123.212 22.0237 123.506 21.6851 123.88 21.4247C124.254 21.1643 124.685 20.9678 125.173 20.8352C125.66 20.6979 126.181 20.6056 126.735 20.5582C127.355 20.5014 127.855 20.4422 128.234 20.3807C128.612 20.3144 128.887 20.2221 129.057 20.1037C129.233 19.9806 129.32 19.8078 129.32 19.5852V19.5497C129.32 19.1851 129.195 18.9034 128.944 18.7045C128.693 18.5057 128.354 18.4062 127.928 18.4062C127.469 18.4062 127.1 18.5057 126.82 18.7045C126.541 18.9034 126.363 19.178 126.288 19.5284L123.084 19.4148C123.179 18.7519 123.423 18.16 123.816 17.6392C124.214 17.1136 124.758 16.7017 125.45 16.4034C126.146 16.1004 126.981 15.9489 127.957 15.9489C128.653 15.9489 129.294 16.0317 129.881 16.1974C130.468 16.3584 130.98 16.5952 131.415 16.9077C131.851 17.2154 132.187 17.5942 132.424 18.044C132.665 18.4938 132.786 19.0076 132.786 19.5852V27H129.519V25.4801H129.434C129.24 25.8494 128.991 26.1619 128.688 26.4176C128.39 26.6733 128.037 26.8651 127.63 26.9929C127.227 27.1207 126.773 27.1847 126.266 27.1847ZM127.339 24.9119C127.713 24.9119 128.049 24.8362 128.347 24.6847C128.65 24.5331 128.892 24.3248 129.072 24.0597C129.252 23.7898 129.342 23.4773 129.342 23.1222V22.0852C129.242 22.1373 129.121 22.1847 128.979 22.2273C128.842 22.2699 128.691 22.3101 128.525 22.348C128.359 22.3859 128.189 22.419 128.013 22.4474C127.838 22.4759 127.67 22.5019 127.509 22.5256C127.182 22.5777 126.903 22.6581 126.671 22.767C126.444 22.8759 126.269 23.018 126.146 23.1932C126.027 23.3636 125.968 23.5672 125.968 23.804C125.968 24.1638 126.096 24.4384 126.352 24.6278C126.612 24.8172 126.941 24.9119 127.339 24.9119ZM144.37 19.4219L141.181 19.5071C141.148 19.2798 141.058 19.0786 140.911 18.9034C140.764 18.7235 140.573 18.5838 140.336 18.4844C140.104 18.3802 139.834 18.3281 139.526 18.3281C139.124 18.3281 138.78 18.4086 138.496 18.5696C138.217 18.7306 138.08 18.9484 138.084 19.223C138.08 19.4361 138.165 19.6207 138.34 19.777C138.52 19.9332 138.84 20.0587 139.299 20.1534L141.401 20.5511C142.49 20.7595 143.3 21.1051 143.83 21.5881C144.365 22.071 144.635 22.7102 144.64 23.5057C144.635 24.2538 144.413 24.9048 143.972 25.4588C143.537 26.0128 142.94 26.4437 142.182 26.7514C141.425 27.0545 140.558 27.206 139.583 27.206C138.025 27.206 136.797 26.8864 135.897 26.2472C135.002 25.6032 134.491 24.7415 134.363 23.6619L137.793 23.5767C137.869 23.9744 138.065 24.2775 138.383 24.4858C138.7 24.6941 139.105 24.7983 139.597 24.7983C140.042 24.7983 140.404 24.7154 140.684 24.5497C140.963 24.384 141.105 24.1638 141.11 23.8892C141.105 23.643 140.996 23.4465 140.783 23.2997C140.57 23.1482 140.236 23.0298 139.782 22.9446L137.878 22.5824C136.785 22.3835 135.97 22.0166 135.435 21.4815C134.9 20.9418 134.635 20.2552 134.64 19.4219C134.635 18.6927 134.829 18.0701 135.222 17.554C135.615 17.0331 136.174 16.6354 136.898 16.3608C137.623 16.0862 138.477 15.9489 139.462 15.9489C140.94 15.9489 142.104 16.259 142.957 16.8793C143.809 17.4948 144.28 18.3423 144.37 19.4219ZM155.81 19.4219L152.621 19.5071C152.588 19.2798 152.498 19.0786 152.351 18.9034C152.204 18.7235 152.012 18.5838 151.776 18.4844C151.544 18.3802 151.274 18.3281 150.966 18.3281C150.564 18.3281 150.22 18.4086 149.936 18.5696C149.657 18.7306 149.52 18.9484 149.524 19.223C149.52 19.4361 149.605 19.6207 149.78 19.777C149.96 19.9332 150.28 20.0587 150.739 20.1534L152.841 20.5511C153.93 20.7595 154.74 21.1051 155.27 21.5881C155.805 22.071 156.075 22.7102 156.08 23.5057C156.075 24.2538 155.852 24.9048 155.412 25.4588C154.976 26.0128 154.38 26.4437 153.622 26.7514C152.865 27.0545 151.998 27.206 151.023 27.206C149.465 27.206 148.236 26.8864 147.337 26.2472C146.442 25.6032 145.931 24.7415 145.803 23.6619L149.233 23.5767C149.309 23.9744 149.505 24.2775 149.823 24.4858C150.14 24.6941 150.545 24.7983 151.037 24.7983C151.482 24.7983 151.844 24.7154 152.124 24.5497C152.403 24.384 152.545 24.1638 152.55 23.8892C152.545 23.643 152.436 23.4465 152.223 23.2997C152.01 23.1482 151.676 23.0298 151.222 22.9446L149.318 22.5824C148.225 22.3835 147.41 22.0166 146.875 21.4815C146.34 20.9418 146.075 20.2552 146.08 19.4219C146.075 18.6927 146.269 18.0701 146.662 17.554C147.055 17.0331 147.614 16.6354 148.338 16.3608C149.063 16.0862 149.917 15.9489 150.902 15.9489C152.379 15.9489 153.544 16.259 154.396 16.8793C155.249 17.4948 155.72 18.3423 155.81 19.4219ZM165.105 27H161.326L166.234 12.4545H170.914L175.822 27H172.044L168.627 16.1193H168.514L165.105 27ZM164.6 21.2756H172.498V23.946H164.6V21.2756ZM184.362 22.2912V16.0909H187.828V27H184.519V24.9688H184.405C184.164 25.6364 183.752 26.1667 183.169 26.5597C182.592 26.9479 181.893 27.142 181.074 27.142C180.331 27.142 179.677 26.9716 179.114 26.6307C178.55 26.2898 178.112 25.8139 177.8 25.2031C177.487 24.5876 177.329 23.8679 177.324 23.044V16.0909H180.797V22.3622C180.802 22.9541 180.958 23.4205 181.266 23.7614C181.574 24.1023 181.993 24.2727 182.523 24.2727C182.869 24.2727 183.179 24.197 183.453 24.0455C183.733 23.8892 183.953 23.6643 184.114 23.3707C184.28 23.0724 184.362 22.7126 184.362 22.2912ZM196.133 16.0909V18.6477H189.251V16.0909H196.133ZM190.692 13.4773H194.165V23.5696C194.165 23.7827 194.198 23.9555 194.265 24.0881C194.336 24.2159 194.438 24.3082 194.57 24.3651C194.703 24.4171 194.861 24.4432 195.046 24.4432C195.179 24.4432 195.318 24.4313 195.465 24.4077C195.617 24.3793 195.73 24.3556 195.806 24.3366L196.332 26.8438C196.166 26.8911 195.931 26.9503 195.628 27.0213C195.33 27.0923 194.973 27.1373 194.556 27.1562C193.742 27.1941 193.043 27.0994 192.461 26.8722C191.883 26.6402 191.44 26.2803 191.133 25.7926C190.83 25.3049 190.683 24.6918 190.692 23.9531V13.4773ZM202.816 27.206C201.67 27.206 200.685 26.9716 199.861 26.5028C199.042 26.0294 198.41 25.3712 197.965 24.5284C197.525 23.6809 197.304 22.6984 197.304 21.581C197.304 20.4588 197.525 19.4763 197.965 18.6335C198.41 17.786 199.042 17.1278 199.861 16.6591C200.685 16.1856 201.67 15.9489 202.816 15.9489C203.962 15.9489 204.944 16.1856 205.763 16.6591C206.587 17.1278 207.219 17.786 207.66 18.6335C208.105 19.4763 208.327 20.4588 208.327 21.581C208.327 22.6984 208.105 23.6809 207.66 24.5284C207.219 25.3712 206.587 26.0294 205.763 26.5028C204.944 26.9716 203.962 27.206 202.816 27.206ZM202.837 24.5852C203.254 24.5852 203.607 24.4574 203.895 24.2017C204.184 23.946 204.404 23.5909 204.556 23.1364C204.712 22.6818 204.79 22.1562 204.79 21.5597C204.79 20.9536 204.712 20.4233 204.556 19.9688C204.404 19.5142 204.184 19.1591 203.895 18.9034C203.607 18.6477 203.254 18.5199 202.837 18.5199C202.406 18.5199 202.042 18.6477 201.743 18.9034C201.45 19.1591 201.225 19.5142 201.069 19.9688C200.917 20.4233 200.841 20.9536 200.841 21.5597C200.841 22.1562 200.917 22.6818 201.069 23.1364C201.225 23.5909 201.45 23.946 201.743 24.2017C202.042 24.4574 202.406 24.5852 202.837 24.5852ZM223.245 17.7244H219.694C219.647 17.3598 219.55 17.0308 219.403 16.7372C219.256 16.4437 219.062 16.1927 218.821 15.9844C218.579 15.776 218.293 15.6174 217.961 15.5085C217.635 15.3949 217.272 15.3381 216.875 15.3381C216.169 15.3381 215.561 15.5109 215.049 15.8565C214.543 16.2022 214.152 16.7017 213.878 17.3551C213.608 18.0085 213.473 18.7992 213.473 19.7273C213.473 20.6932 213.61 21.5028 213.885 22.1562C214.164 22.8049 214.555 23.295 215.056 23.6264C215.563 23.9531 216.162 24.1165 216.853 24.1165C217.242 24.1165 217.594 24.0668 217.912 23.9673C218.234 23.8679 218.515 23.7235 218.757 23.5341C219.003 23.34 219.204 23.1056 219.36 22.831C219.521 22.5516 219.633 22.2367 219.694 21.8864L223.245 21.9077C223.184 22.5516 222.997 23.1861 222.684 23.8111C222.377 24.4361 221.953 25.0066 221.413 25.5227C220.873 26.0341 220.215 26.4413 219.439 26.7443C218.667 27.0473 217.781 27.1989 216.782 27.1989C215.466 27.1989 214.287 26.91 213.245 26.3324C212.208 25.75 211.389 24.9025 210.788 23.7898C210.187 22.6771 209.886 21.3229 209.886 19.7273C209.886 18.1269 210.191 16.7704 210.802 15.6577C211.413 14.545 212.239 13.6998 213.281 13.1222C214.323 12.5445 215.49 12.2557 216.782 12.2557C217.663 12.2557 218.477 12.3788 219.226 12.625C219.974 12.8665 220.632 13.2216 221.2 13.6903C221.768 14.1544 222.23 14.7249 222.585 15.402C222.94 16.0791 223.16 16.8532 223.245 17.7244ZM230.285 27.206C229.14 27.206 228.155 26.9716 227.331 26.5028C226.512 26.0294 225.88 25.3712 225.435 24.5284C224.994 23.6809 224.774 22.6984 224.774 21.581C224.774 20.4588 224.994 19.4763 225.435 18.6335C225.88 17.786 226.512 17.1278 227.331 16.6591C228.155 16.1856 229.14 15.9489 230.285 15.9489C231.431 15.9489 232.414 16.1856 233.233 16.6591C234.057 17.1278 234.689 17.786 235.129 18.6335C235.574 19.4763 235.797 20.4588 235.797 21.581C235.797 22.6984 235.574 23.6809 235.129 24.5284C234.689 25.3712 234.057 26.0294 233.233 26.5028C232.414 26.9716 231.431 27.206 230.285 27.206ZM230.307 24.5852C230.723 24.5852 231.076 24.4574 231.365 24.2017C231.654 23.946 231.874 23.5909 232.026 23.1364C232.182 22.6818 232.26 22.1562 232.26 21.5597C232.26 20.9536 232.182 20.4233 232.026 19.9688C231.874 19.5142 231.654 19.1591 231.365 18.9034C231.076 18.6477 230.723 18.5199 230.307 18.5199C229.876 18.5199 229.511 18.6477 229.213 18.9034C228.919 19.1591 228.695 19.5142 228.538 19.9688C228.387 20.4233 228.311 20.9536 228.311 21.5597C228.311 22.1562 228.387 22.6818 228.538 23.1364C228.695 23.5909 228.919 23.946 229.213 24.2017C229.511 24.4574 229.876 24.5852 230.307 24.5852ZM237.512 27V16.0909H240.814V18.0938H240.935C241.163 17.4309 241.546 16.9077 242.086 16.5241C242.626 16.1406 243.27 15.9489 244.018 15.9489C244.775 15.9489 245.424 16.143 245.964 16.5312C246.503 16.9195 246.847 17.4403 246.993 18.0938H247.107C247.311 17.4451 247.708 16.9266 248.3 16.5384C248.892 16.1454 249.591 15.9489 250.395 15.9489C251.428 15.9489 252.266 16.2803 252.91 16.9432C253.554 17.6013 253.876 18.5057 253.876 19.6562V27H250.403V20.4517C250.403 19.9072 250.263 19.4929 249.984 19.2088C249.704 18.92 249.342 18.7756 248.897 18.7756C248.419 18.7756 248.042 18.9318 247.768 19.2443C247.498 19.5521 247.363 19.9664 247.363 20.4872V27H244.025V20.4162C244.025 19.9096 243.887 19.5095 243.613 19.2159C243.338 18.9223 242.976 18.7756 242.526 18.7756C242.223 18.7756 241.956 18.849 241.724 18.9957C241.492 19.1378 241.309 19.3414 241.177 19.6065C241.049 19.8717 240.985 20.1842 240.985 20.544V27H237.512ZM255.964 31.0909V16.0909H259.401V17.9588H259.508C259.65 17.6274 259.851 17.3078 260.111 17C260.376 16.6922 260.713 16.4413 261.12 16.2472C261.532 16.0483 262.024 15.9489 262.597 15.9489C263.355 15.9489 264.063 16.1477 264.721 16.5455C265.384 16.9432 265.919 17.5563 266.326 18.3849C266.733 19.2135 266.937 20.2694 266.937 21.5526C266.937 22.7884 266.74 23.8229 266.347 24.6562C265.959 25.4896 265.433 26.1146 264.77 26.5312C264.112 26.9479 263.381 27.1562 262.576 27.1562C262.027 27.1562 261.551 27.0663 261.148 26.8864C260.746 26.7064 260.407 26.4697 260.133 26.1761C259.863 25.8826 259.654 25.5677 259.508 25.2315H259.437V31.0909H255.964ZM259.366 21.5455C259.366 22.1326 259.444 22.6439 259.6 23.0795C259.761 23.5152 259.991 23.8537 260.289 24.0952C260.592 24.3319 260.954 24.4503 261.376 24.4503C261.802 24.4503 262.164 24.3319 262.462 24.0952C262.76 23.8537 262.985 23.5152 263.137 23.0795C263.293 22.6439 263.371 22.1326 263.371 21.5455C263.371 20.9583 263.293 20.4493 263.137 20.0185C262.985 19.5876 262.76 19.2538 262.462 19.017C262.169 18.7803 261.806 18.6619 261.376 18.6619C260.949 18.6619 260.587 18.7779 260.289 19.0099C259.991 19.242 259.761 19.5734 259.6 20.0043C259.444 20.4351 259.366 20.9489 259.366 21.5455ZM273.785 27.206C272.639 27.206 271.654 26.9716 270.83 26.5028C270.011 26.0294 269.379 25.3712 268.934 24.5284C268.494 23.6809 268.274 22.6984 268.274 21.581C268.274 20.4588 268.494 19.4763 268.934 18.6335C269.379 17.786 270.011 17.1278 270.83 16.6591C271.654 16.1856 272.639 15.9489 273.785 15.9489C274.931 15.9489 275.913 16.1856 276.732 16.6591C277.556 17.1278 278.188 17.786 278.629 18.6335C279.074 19.4763 279.296 20.4588 279.296 21.581C279.296 22.6984 279.074 23.6809 278.629 24.5284C278.188 25.3712 277.556 26.0294 276.732 26.5028C275.913 26.9716 274.931 27.206 273.785 27.206ZM273.806 24.5852C274.223 24.5852 274.576 24.4574 274.864 24.2017C275.153 23.946 275.373 23.5909 275.525 23.1364C275.681 22.6818 275.759 22.1562 275.759 21.5597C275.759 20.9536 275.681 20.4233 275.525 19.9688C275.373 19.5142 275.153 19.1591 274.864 18.9034C274.576 18.6477 274.223 18.5199 273.806 18.5199C273.375 18.5199 273.011 18.6477 272.712 18.9034C272.419 19.1591 272.194 19.5142 272.038 19.9688C271.886 20.4233 271.81 20.9536 271.81 21.5597C271.81 22.1562 271.886 22.6818 272.038 23.1364C272.194 23.5909 272.419 23.946 272.712 24.2017C273.011 24.4574 273.375 24.5852 273.806 24.5852ZM288.05 22.2912V16.0909H291.516V27H288.206V24.9688H288.092C287.851 25.6364 287.439 26.1667 286.857 26.5597C286.279 26.9479 285.58 27.142 284.761 27.142C284.018 27.142 283.365 26.9716 282.801 26.6307C282.238 26.2898 281.8 25.8139 281.487 25.2031C281.175 24.5876 281.016 23.8679 281.011 23.044V16.0909H284.484V22.3622C284.489 22.9541 284.645 23.4205 284.953 23.7614C285.261 24.1023 285.68 24.2727 286.21 24.2727C286.556 24.2727 286.866 24.197 287.141 24.0455C287.42 23.8892 287.64 23.6643 287.801 23.3707C287.967 23.0724 288.05 22.7126 288.05 22.2912ZM297.135 20.7784V27H293.662V16.0909H296.965V18.0938H297.085C297.327 17.4261 297.739 16.9029 298.321 16.5241C298.904 16.1406 299.597 15.9489 300.402 15.9489C301.169 15.9489 301.835 16.1217 302.398 16.4673C302.966 16.8082 303.407 17.2865 303.719 17.902C304.036 18.5128 304.192 19.2277 304.188 20.0469V27H300.715V20.7287C300.719 20.1226 300.566 19.6491 300.253 19.3082C299.945 18.9673 299.517 18.7969 298.968 18.7969C298.603 18.7969 298.281 18.8774 298.002 19.0384C297.727 19.1946 297.514 19.4195 297.362 19.7131C297.216 20.0066 297.14 20.3617 297.135 20.7784ZM310.258 27.1562C309.453 27.1562 308.722 26.9479 308.064 26.5312C307.406 26.1146 306.88 25.4896 306.487 24.6562C306.094 23.8229 305.898 22.7884 305.898 21.5526C305.898 20.2694 306.101 19.2135 306.508 18.3849C306.916 17.5563 307.448 16.9432 308.106 16.5455C308.769 16.1477 309.482 15.9489 310.244 15.9489C310.817 15.9489 311.307 16.0483 311.714 16.2472C312.122 16.4413 312.458 16.6922 312.723 17C312.988 17.3078 313.189 17.6274 313.327 17.9588H313.398V12.4545H316.871V27H313.433V25.2315H313.327C313.18 25.5677 312.971 25.8826 312.702 26.1761C312.432 26.4697 312.093 26.7064 311.686 26.8864C311.283 27.0663 310.808 27.1562 310.258 27.1562ZM311.466 24.4503C311.887 24.4503 312.247 24.3319 312.545 24.0952C312.844 23.8537 313.073 23.5152 313.234 23.0795C313.395 22.6439 313.476 22.1326 313.476 21.5455C313.476 20.9489 313.395 20.4351 313.234 20.0043C313.078 19.5734 312.848 19.242 312.545 19.0099C312.247 18.7779 311.887 18.6619 311.466 18.6619C311.035 18.6619 310.67 18.7803 310.372 19.017C310.074 19.2538 309.846 19.5876 309.69 20.0185C309.539 20.4493 309.463 20.9583 309.463 21.5455C309.463 22.1326 309.541 22.6439 309.697 23.0795C309.854 23.5152 310.078 23.8537 310.372 24.0952C310.67 24.3319 311.035 24.4503 311.466 24.4503ZM324.102 27.206C322.961 27.206 321.976 26.9811 321.148 26.5312C320.324 26.0767 319.69 25.4304 319.244 24.5923C318.804 23.7495 318.584 22.7481 318.584 21.5881C318.584 20.4612 318.806 19.4763 319.252 18.6335C319.697 17.786 320.324 17.1278 321.134 16.6591C321.943 16.1856 322.897 15.9489 323.996 15.9489C324.772 15.9489 325.483 16.0696 326.127 16.3111C326.77 16.5526 327.327 16.91 327.796 17.3835C328.264 17.857 328.629 18.4418 328.889 19.1378C329.15 19.8291 329.28 20.6222 329.28 21.517V22.3835H319.798V20.3665H326.048C326.044 19.9972 325.956 19.6681 325.786 19.3793C325.615 19.0904 325.381 18.8655 325.082 18.7045C324.789 18.5388 324.45 18.456 324.067 18.456C323.679 18.456 323.331 18.5436 323.023 18.7188C322.715 18.8892 322.471 19.1236 322.291 19.4219C322.111 19.7154 322.017 20.0492 322.007 20.4233V22.4759C322.007 22.9209 322.095 23.3116 322.27 23.6477C322.445 23.9792 322.694 24.2372 323.016 24.4219C323.338 24.6065 323.721 24.6989 324.166 24.6989C324.474 24.6989 324.753 24.6562 325.004 24.571C325.255 24.4858 325.471 24.3603 325.651 24.1946C325.831 24.0289 325.966 23.8253 326.056 23.5838L329.244 23.6761C329.112 24.3911 328.821 25.0137 328.371 25.544C327.926 26.0696 327.341 26.4792 326.617 26.7727C325.892 27.0616 325.054 27.206 324.102 27.206ZM330.99 27V16.0909H334.363V18.0795H334.477C334.676 17.3598 335 16.8248 335.45 16.4744C335.9 16.1193 336.423 15.9418 337.02 15.9418C337.181 15.9418 337.346 15.9536 337.517 15.9773C337.687 15.9962 337.846 16.027 337.993 16.0696V19.0881C337.827 19.0312 337.609 18.9863 337.339 18.9531C337.074 18.92 336.837 18.9034 336.629 18.9034C336.217 18.9034 335.845 18.9957 335.514 19.1804C335.187 19.3603 334.929 19.6136 334.74 19.9403C334.555 20.2623 334.463 20.6411 334.463 21.0767V27H330.99Z" fill="#494949"/>
<defs>
<linearGradient id="paint0_linear_38_529" x1="20" y1="0" x2="20" y2="20" gradientUnits="userSpaceOnUse">
<stop stop-color="#9DFFDC"/>
<stop offset="1" stop-color="#D1C1FF"/>
</linearGradient>
<linearGradient id="paint1_linear_38_529" x1="20" y1="31" x2="20" y2="11" gradientUnits="userSpaceOnUse">
<stop stop-color="#61F7C1"/>
<stop offset="1" stop-color="#A889FF"/>
</linearGradient>
<linearGradient id="paint2_linear_38_529" x1="20" y1="40" x2="20" y2="20" gradientUnits="userSpaceOnUse">
<stop stop-color="#FF87D6"/>
<stop offset="1" stop-color="#C5FFAA"/>
</linearGradient>
<clipPath id="clip0_38_529">
<rect width="40" height="40" rx="16" fill="white"/>
</clipPath>
</defs>
</svg>
