<svg width="120" height="120" viewBox="0 0 120 120" fill="none" xmlns="http://www.w3.org/2000/svg">
<path fill-rule="evenodd" clip-rule="evenodd" d="M78.315 18.867C69.4512 14.9175 59.5482 13.939 50.0829 16.0776C40.6175 18.2162 32.0971 23.3571 25.7923 30.7338C19.4874 38.1104 15.736 47.3275 15.0976 57.0104C14.4591 66.6932 16.9677 76.3231 22.2493 84.4638C27.531 92.6044 35.3026 98.8197 44.4051 102.183C53.5077 105.546 63.4534 105.876 72.7591 103.125C82.0648 100.373 90.2318 94.6873 96.042 86.9152C101.852 79.143 104.994 69.7009 105 59.997V55.3998C105 52.6384 107.239 50.3998 110 50.3998C112.761 50.3998 115 52.6384 115 55.3998V59.9998C114.993 71.8601 111.153 83.4034 104.051 92.9027C96.9499 102.402 86.9681 109.351 75.5945 112.714C64.2209 116.077 52.0649 115.673 40.9396 111.563C29.8142 107.453 20.3156 99.8562 13.8603 89.9065C7.40496 79.9569 4.33885 68.187 5.11922 56.3524C5.89959 44.5178 10.4846 33.2525 18.1905 24.2366C25.8964 15.2207 36.3103 8.93727 47.879 6.32348C59.4478 3.70968 71.5515 4.90553 82.385 9.73267C84.9074 10.8566 86.0411 13.8125 84.9172 16.3348C83.7933 18.8572 80.8374 19.9909 78.315 18.867Z" fill="#38C216"/>
<path fill-rule="evenodd" clip-rule="evenodd" d="M113.534 16.4627C115.487 18.4143 115.489 21.5802 113.537 23.5338L63.5373 73.5838C62.5998 74.5222 61.3278 75.0497 60.0012 75.05C58.6747 75.0503 57.4025 74.5235 56.4645 73.5855L41.4645 58.5855C39.5118 56.6329 39.5118 53.4671 41.4645 51.5145C43.4171 49.5618 46.5829 49.5618 48.5355 51.5145L59.9982 62.9772L106.463 16.4662C108.414 14.5126 111.58 14.5111 113.534 16.4627Z" fill="#38C216"/>
</svg>
