<svg width="101" height="100" viewBox="0 0 101 100" fill="none" xmlns="http://www.w3.org/2000/svg">
<path d="M50.5 10C28.4086 10 10.5 27.9086 10.5 50C10.5 72.0914 28.4086 90 50.5 90C72.5914 90 90.5 72.0914 90.5 50C90.5 27.9086 72.5914 10 50.5 10ZM0.5 50C0.5 22.3858 22.8858 0 50.5 0C78.1142 0 100.5 22.3858 100.5 50C100.5 77.6142 78.1142 100 50.5 100C22.8858 100 0.5 77.6142 0.5 50ZM29.4645 28.9645C31.4171 27.0118 34.5829 27.0118 36.5355 28.9645L50.5 42.9289L64.4645 28.9645C66.4171 27.0118 69.5829 27.0118 71.5355 28.9645C73.4882 30.9171 73.4882 34.0829 71.5355 36.0355L57.5711 50L71.5355 63.9645C73.4882 65.9171 73.4882 69.0829 71.5355 71.0355C69.5829 72.9882 66.4171 72.9882 64.4645 71.0355L50.5 57.0711L36.5355 71.0355C34.5829 72.9882 31.4171 72.9882 29.4645 71.0355C27.5118 69.0829 27.5118 65.9171 29.4645 63.9645L43.4289 50L29.4645 36.0355C27.5118 34.0829 27.5118 30.9171 29.4645 28.9645Z" fill="#C21616"/>
</svg>
