<svg width="16" height="16" viewBox="0 0 16 16" fill="none" xmlns="http://www.w3.org/2000/svg">
<path d="M8 2.66659C6.52724 2.66659 5.33333 3.86049 5.33333 5.33325C5.33333 6.80601 6.52724 7.99992 8 7.99992C9.47276 7.99992 10.6667 6.80601 10.6667 5.33325C10.6667 3.86049 9.47276 2.66659 8 2.66659ZM4 5.33325C4 3.12411 5.79086 1.33325 8 1.33325C10.2091 1.33325 12 3.12411 12 5.33325C12 7.54239 10.2091 9.33325 8 9.33325C5.79086 9.33325 4 7.54239 4 5.33325ZM5.33333 11.9999C4.22876 11.9999 3.33333 12.8953 3.33333 13.9999C3.33333 14.3681 3.03486 14.6666 2.66667 14.6666C2.29848 14.6666 2 14.3681 2 13.9999C2 12.159 3.49239 10.6666 5.33333 10.6666H10.6667C12.5076 10.6666 14 12.159 14 13.9999C14 14.3681 13.7015 14.6666 13.3333 14.6666C12.9651 14.6666 12.6667 14.3681 12.6667 13.9999C12.6667 12.8953 11.7712 11.9999 10.6667 11.9999H5.33333Z" fill="#C7C7C7"/>
</svg>
