<svg width="20" height="20" viewBox="0 0 20 20" fill="none" xmlns="http://www.w3.org/2000/svg">
<path d="M9.99984 3.33337C10.2209 3.33337 10.4328 3.42117 10.5891 3.57745L15.5891 8.57745C15.9145 8.90289 15.9145 9.43053 15.5891 9.75596C15.2637 10.0814 14.736 10.0814 14.4106 9.75596L10.8332 6.17855L10.8332 15.8334C10.8332 16.2936 10.4601 16.6667 9.99984 16.6667C9.5396 16.6667 9.1665 16.2936 9.1665 15.8334L9.1665 6.17855L5.58909 9.75596C5.26366 10.0814 4.73602 10.0814 4.41058 9.75596C4.08514 9.43053 4.08514 8.90289 4.41058 8.57745L9.41058 3.57745C9.56686 3.42117 9.77882 3.33337 9.99984 3.33337Z" fill="#30C30C"/>
</svg>
