<svg width="18" height="18" viewBox="0 0 18 18" fill="none" xmlns="http://www.w3.org/2000/svg">
<path d="M7.33317 2.33341C4.57175 2.33341 2.33317 4.57199 2.33317 7.33342C2.33317 10.0948 4.57175 12.3334 7.33317 12.3334C10.0946 12.3334 12.3332 10.0948 12.3332 7.33342C12.3332 4.57199 10.0946 2.33341 7.33317 2.33341ZM0.666504 7.33342C0.666504 3.65152 3.65127 0.666748 7.33317 0.666748C11.0151 0.666748 13.9998 3.65152 13.9998 7.33342C13.9998 8.87401 13.4773 10.2925 12.5997 11.4215L17.0891 15.9108C17.4145 16.2363 17.4145 16.7639 17.0891 17.0893C16.7637 17.4148 16.236 17.4148 15.9106 17.0893L11.4212 12.6C10.2923 13.4775 8.87376 14.0001 7.33317 14.0001C3.65127 14.0001 0.666504 11.0153 0.666504 7.33342Z" fill="white"/>
</svg>
