<svg width="16" height="16" viewBox="0 0 16 16" fill="none" xmlns="http://www.w3.org/2000/svg">
<path d="M7.99984 2.66671C9.09831 2.66671 9.99984 3.56823 9.99984 4.66671V6.66671H5.99984V4.66671C5.99984 3.56823 6.90136 2.66671 7.99984 2.66671ZM11.3332 6.66671V4.66671C11.3332 2.83185 9.83469 1.33337 7.99984 1.33337C6.16498 1.33337 4.6665 2.83185 4.6665 4.66671V6.66671H3.99984C3.26346 6.66671 2.6665 7.26366 2.6665 8.00004V13.3334C2.6665 14.0698 3.26346 14.6667 3.99984 14.6667H11.9998C12.7362 14.6667 13.3332 14.0698 13.3332 13.3334V8.00004C13.3332 7.26366 12.7362 6.66671 11.9998 6.66671H11.3332ZM3.99984 8.00004H11.9998V13.3334H3.99984V8.00004Z" fill="#3B89E4"/>
</svg>
