<svg width="327" height="40" viewBox="0 0 327 40" fill="none" xmlns="http://www.w3.org/2000/svg">
<g clip-path="url(#clip0_38_529)">
<rect width="40" height="40" rx="16" fill="#494949"/>
<path d="M20 0C20 14 6.66667 19.1667 0 20H40C24.8 20 20.3333 6.66667 20 0Z" fill="url(#paint0_linear_38_529)"/>
<path d="M20 31C20 17 33.3333 11.8333 40 11L1.74846e-06 11C15.2 11 19.6667 24.3333 20 31Z" fill="url(#paint1_linear_38_529)"/>
<path d="M20 40C20 26 6.66666 20.8333 -1.74846e-06 20L40 20C24.8 20 20.3333 33.3333 20 40Z" fill="url(#paint2_linear_38_529)"/>
</g>
<path d="M66.304 17.7244H62.7528C62.7055 17.3598 62.6084 17.0308 62.4616 16.7372C62.3149 16.4437 62.1207 16.1927 61.8793 15.9844C61.6378 15.776 61.3513 15.6174 61.0199 15.5085C60.6932 15.3949 60.331 15.3381 59.9332 15.3381C59.2277 15.3381 58.6193 15.5109 58.108 15.8565C57.6013 16.2022 57.2107 16.7017 56.9361 17.3551C56.6662 18.0085 56.5312 18.7992 56.5312 19.7273C56.5312 20.6932 56.6686 21.5028 56.9432 22.1562C57.2225 22.8049 57.6132 23.295 58.1151 23.6264C58.6217 23.9531 59.2206 24.1165 59.9119 24.1165C60.3002 24.1165 60.6529 24.0668 60.9702 23.9673C61.2921 23.8679 61.5739 23.7235 61.8153 23.5341C62.0616 23.34 62.2628 23.1056 62.419 22.831C62.58 22.5516 62.6913 22.2367 62.7528 21.8864L66.304 21.9077C66.2424 22.5516 66.0554 23.1861 65.7429 23.8111C65.4351 24.4361 65.0114 25.0066 64.4716 25.5227C63.9318 26.0341 63.2737 26.4413 62.4972 26.7443C61.7254 27.0473 60.84 27.1989 59.8409 27.1989C58.5246 27.1989 57.3456 26.91 56.304 26.3324C55.267 25.75 54.4479 24.9025 53.8466 23.7898C53.2453 22.6771 52.9446 21.3229 52.9446 19.7273C52.9446 18.1269 53.25 16.7704 53.8608 15.6577C54.4716 14.545 55.2978 13.6998 56.3395 13.1222C57.3812 12.5445 58.5483 12.2557 59.8409 12.2557C60.7216 12.2557 61.536 12.3788 62.2841 12.625C63.0322 12.8665 63.6903 13.2216 64.2585 13.6903C64.8267 14.1544 65.2884 14.7249 65.6435 15.402C65.9986 16.0791 66.2188 16.8532 66.304 17.7244ZM73.344 27.206C72.1982 27.206 71.2133 26.9716 70.3895 26.5028C69.5704 26.0294 68.9382 25.3712 68.4932 24.5284C68.0528 23.6809 67.8327 22.6984 67.8327 21.581C67.8327 20.4588 68.0528 19.4763 68.4932 18.6335C68.9382 17.786 69.5704 17.1278 70.3895 16.6591C71.2133 16.1856 72.1982 15.9489 73.344 15.9489C74.4899 15.9489 75.4723 16.1856 76.2915 16.6591C77.1153 17.1278 77.7474 17.786 78.1878 18.6335C78.6329 19.4763 78.8554 20.4588 78.8554 21.581C78.8554 22.6984 78.6329 23.6809 78.1878 24.5284C77.7474 25.3712 77.1153 26.0294 76.2915 26.5028C75.4723 26.9716 74.4899 27.206 73.344 27.206ZM73.3653 24.5852C73.782 24.5852 74.1347 24.4574 74.4236 24.2017C74.7124 23.946 74.9326 23.5909 75.0841 23.1364C75.2403 22.6818 75.3185 22.1562 75.3185 21.5597C75.3185 20.9536 75.2403 20.4233 75.0841 19.9688C74.9326 19.5142 74.7124 19.1591 74.4236 18.9034C74.1347 18.6477 73.782 18.5199 73.3653 18.5199C72.9345 18.5199 72.5699 18.6477 72.2716 18.9034C71.978 19.1591 71.7531 19.5142 71.5969 19.9688C71.4454 20.4233 71.3696 20.9536 71.3696 21.5597C71.3696 22.1562 71.4454 22.6818 71.5969 23.1364C71.7531 23.5909 71.978 23.946 72.2716 24.2017C72.5699 24.4574 72.9345 24.5852 73.3653 24.5852ZM80.5705 27V16.0909H83.8731V18.0938H83.9938C84.2211 17.4309 84.6046 16.9077 85.1444 16.5241C85.6841 16.1406 86.3281 15.9489 87.0762 15.9489C87.8338 15.9489 88.4824 16.143 89.0222 16.5312C89.562 16.9195 89.9053 17.4403 90.052 18.0938H90.1657C90.3693 17.4451 90.767 16.9266 91.3589 16.5384C91.9507 16.1454 92.6491 15.9489 93.454 15.9489C94.4862 15.9489 95.3243 16.2803 95.9682 16.9432C96.6122 17.6013 96.9341 18.5057 96.9341 19.6562V27H93.4611V20.4517C93.4611 19.9072 93.3215 19.4929 93.0421 19.2088C92.7627 18.92 92.4005 18.7756 91.9555 18.7756C91.4772 18.7756 91.1008 18.9318 90.8262 19.2443C90.5563 19.5521 90.4214 19.9664 90.4214 20.4872V27H87.0833V20.4162C87.0833 19.9096 86.946 19.5095 86.6714 19.2159C86.3967 18.9223 86.0345 18.7756 85.5847 18.7756C85.2817 18.7756 85.0142 18.849 84.7822 18.9957C84.5501 19.1378 84.3679 19.3414 84.2353 19.6065C84.1074 19.8717 84.0435 20.1842 84.0435 20.544V27H80.5705ZM99.0221 31.0909V16.0909H102.46V17.9588H102.566C102.708 17.6274 102.909 17.3078 103.17 17C103.435 16.6922 103.771 16.4413 104.178 16.2472C104.59 16.0483 105.083 15.9489 105.656 15.9489C106.413 15.9489 107.121 16.1477 107.779 16.5455C108.442 16.9432 108.977 17.5563 109.384 18.3849C109.792 19.2135 109.995 20.2694 109.995 21.5526C109.995 22.7884 109.799 23.8229 109.406 24.6562C109.017 25.4896 108.492 26.1146 107.829 26.5312C107.171 26.9479 106.439 27.1562 105.634 27.1562C105.085 27.1562 104.609 27.0663 104.207 26.8864C103.804 26.7064 103.466 26.4697 103.191 26.1761C102.921 25.8826 102.713 25.5677 102.566 25.2315H102.495V31.0909H99.0221ZM102.424 21.5455C102.424 22.1326 102.502 22.6439 102.658 23.0795C102.819 23.5152 103.049 23.8537 103.347 24.0952C103.65 24.3319 104.013 24.4503 104.434 24.4503C104.86 24.4503 105.222 24.3319 105.521 24.0952C105.819 23.8537 106.044 23.5152 106.195 23.0795C106.352 22.6439 106.43 22.1326 106.43 21.5455C106.43 20.9583 106.352 20.4493 106.195 20.0185C106.044 19.5876 105.819 19.2538 105.521 19.017C105.227 18.7803 104.865 18.6619 104.434 18.6619C104.008 18.6619 103.646 18.7779 103.347 19.0099C103.049 19.242 102.819 19.5734 102.658 20.0043C102.502 20.4351 102.424 20.9489 102.424 21.5455ZM114.826 27.1847C114.13 27.1847 113.512 27.0687 112.973 26.8366C112.438 26.5999 112.014 26.2448 111.701 25.7713C111.394 25.2931 111.24 24.6941 111.24 23.9744C111.24 23.3684 111.346 22.857 111.559 22.4403C111.772 22.0237 112.066 21.6851 112.44 21.4247C112.814 21.1643 113.245 20.9678 113.733 20.8352C114.22 20.6979 114.741 20.6056 115.295 20.5582C115.915 20.5014 116.415 20.4422 116.794 20.3807C117.173 20.3144 117.447 20.2221 117.618 20.1037C117.793 19.9806 117.88 19.8078 117.88 19.5852V19.5497C117.88 19.1851 117.755 18.9034 117.504 18.7045C117.253 18.5057 116.914 18.4062 116.488 18.4062C116.029 18.4062 115.66 18.5057 115.38 18.7045C115.101 18.9034 114.923 19.178 114.848 19.5284L111.645 19.4148C111.739 18.7519 111.983 18.16 112.376 17.6392C112.774 17.1136 113.318 16.7017 114.01 16.4034C114.706 16.1004 115.541 15.9489 116.517 15.9489C117.213 15.9489 117.854 16.0317 118.441 16.1974C119.029 16.3584 119.54 16.5952 119.976 16.9077C120.411 17.2154 120.747 17.5942 120.984 18.044C121.226 18.4938 121.346 19.0076 121.346 19.5852V27H118.079V25.4801H117.994C117.8 25.8494 117.551 26.1619 117.248 26.4176C116.95 26.6733 116.597 26.8651 116.19 26.9929C115.788 27.1207 115.333 27.1847 114.826 27.1847ZM115.899 24.9119C116.273 24.9119 116.609 24.8362 116.907 24.6847C117.21 24.5331 117.452 24.3248 117.632 24.0597C117.812 23.7898 117.902 23.4773 117.902 23.1222V22.0852C117.802 22.1373 117.681 22.1847 117.539 22.2273C117.402 22.2699 117.251 22.3101 117.085 22.348C116.919 22.3859 116.749 22.419 116.574 22.4474C116.398 22.4759 116.23 22.5019 116.069 22.5256C115.743 22.5777 115.463 22.6581 115.231 22.767C115.004 22.8759 114.829 23.018 114.706 23.1932C114.587 23.3636 114.528 23.5672 114.528 23.804C114.528 24.1638 114.656 24.4384 114.912 24.6278C115.172 24.8172 115.501 24.9119 115.899 24.9119ZM132.93 19.4219L129.741 19.5071C129.708 19.2798 129.618 19.0786 129.471 18.9034C129.324 18.7235 129.133 18.5838 128.896 18.4844C128.664 18.3802 128.394 18.3281 128.086 18.3281C127.684 18.3281 127.341 18.4086 127.056 18.5696C126.777 18.7306 126.64 18.9484 126.644 19.223C126.64 19.4361 126.725 19.6207 126.9 19.777C127.08 19.9332 127.4 20.0587 127.859 20.1534L129.961 20.5511C131.05 20.7595 131.86 21.1051 132.39 21.5881C132.925 22.071 133.195 22.7102 133.2 23.5057C133.195 24.2538 132.973 24.9048 132.532 25.4588C132.097 26.0128 131.5 26.4437 130.743 26.7514C129.985 27.0545 129.118 27.206 128.143 27.206C126.585 27.206 125.357 26.8864 124.457 26.2472C123.562 25.6032 123.051 24.7415 122.923 23.6619L126.353 23.5767C126.429 23.9744 126.626 24.2775 126.943 24.4858C127.26 24.6941 127.665 24.7983 128.157 24.7983C128.602 24.7983 128.965 24.7154 129.244 24.5497C129.523 24.384 129.665 24.1638 129.67 23.8892C129.665 23.643 129.556 23.4465 129.343 23.2997C129.13 23.1482 128.796 23.0298 128.342 22.9446L126.439 22.5824C125.345 22.3835 124.53 22.0166 123.995 21.4815C123.46 20.9418 123.195 20.2552 123.2 19.4219C123.195 18.6927 123.389 18.0701 123.782 17.554C124.175 17.0331 124.734 16.6354 125.458 16.3608C126.183 16.0862 127.037 15.9489 128.022 15.9489C129.5 15.9489 130.664 16.259 131.517 16.8793C132.369 17.4948 132.84 18.3423 132.93 19.4219ZM144.37 19.4219L141.181 19.5071C141.148 19.2798 141.058 19.0786 140.911 18.9034C140.764 18.7235 140.573 18.5838 140.336 18.4844C140.104 18.3802 139.834 18.3281 139.526 18.3281C139.124 18.3281 138.78 18.4086 138.496 18.5696C138.217 18.7306 138.08 18.9484 138.084 19.223C138.08 19.4361 138.165 19.6207 138.34 19.777C138.52 19.9332 138.84 20.0587 139.299 20.1534L141.401 20.5511C142.49 20.7595 143.3 21.1051 143.83 21.5881C144.365 22.071 144.635 22.7102 144.64 23.5057C144.635 24.2538 144.413 24.9048 143.972 25.4588C143.537 26.0128 142.94 26.4437 142.182 26.7514C141.425 27.0545 140.558 27.206 139.583 27.206C138.025 27.206 136.797 26.8864 135.897 26.2472C135.002 25.6032 134.491 24.7415 134.363 23.6619L137.793 23.5767C137.869 23.9744 138.065 24.2775 138.383 24.4858C138.7 24.6941 139.105 24.7983 139.597 24.7983C140.042 24.7983 140.404 24.7154 140.684 24.5497C140.963 24.384 141.105 24.1638 141.11 23.8892C141.105 23.643 140.996 23.4465 140.783 23.2997C140.57 23.1482 140.236 23.0298 139.782 22.9446L137.878 22.5824C136.785 22.3835 135.97 22.0166 135.435 21.4815C134.9 20.9418 134.635 20.2552 134.64 19.4219C134.635 18.6927 134.829 18.0701 135.222 17.554C135.615 17.0331 136.174 16.6354 136.898 16.3608C137.623 16.0862 138.477 15.9489 139.462 15.9489C140.94 15.9489 142.104 16.259 142.957 16.8793C143.809 17.4948 144.28 18.3423 144.37 19.4219ZM153.665 27H149.886L154.794 12.4545H159.475L164.382 27H160.604L157.188 16.1193H157.074L153.665 27ZM153.161 21.2756H161.058V23.946H153.161V21.2756ZM172.923 22.2912V16.0909H176.388V27H173.079V24.9688H172.965C172.724 25.6364 172.312 26.1667 171.729 26.5597C171.152 26.9479 170.453 27.142 169.634 27.142C168.891 27.142 168.237 26.9716 167.674 26.6307C167.111 26.2898 166.673 25.8139 166.36 25.2031C166.048 24.5876 165.889 23.8679 165.884 23.044V16.0909H169.357V22.3622C169.362 22.9541 169.518 23.4205 169.826 23.7614C170.134 24.1023 170.553 24.2727 171.083 24.2727C171.429 24.2727 171.739 24.197 172.013 24.0455C172.293 23.8892 172.513 23.6643 172.674 23.3707C172.84 23.0724 172.923 22.7126 172.923 22.2912ZM184.693 16.0909V18.6477H177.811V16.0909H184.693ZM179.252 13.4773H182.725V23.5696C182.725 23.7827 182.759 23.9555 182.825 24.0881C182.896 24.2159 182.998 24.3082 183.13 24.3651C183.263 24.4171 183.421 24.4432 183.606 24.4432C183.739 24.4432 183.878 24.4313 184.025 24.4077C184.177 24.3793 184.29 24.3556 184.366 24.3366L184.892 26.8438C184.726 26.8911 184.492 26.9503 184.188 27.0213C183.89 27.0923 183.533 27.1373 183.116 27.1562C182.302 27.1941 181.603 27.0994 181.021 26.8722C180.443 26.6402 180.001 26.2803 179.693 25.7926C179.39 25.3049 179.243 24.6918 179.252 23.9531V13.4773ZM191.376 27.206C190.23 27.206 189.245 26.9716 188.421 26.5028C187.602 26.0294 186.97 25.3712 186.525 24.5284C186.085 23.6809 185.865 22.6984 185.865 21.581C185.865 20.4588 186.085 19.4763 186.525 18.6335C186.97 17.786 187.602 17.1278 188.421 16.6591C189.245 16.1856 190.23 15.9489 191.376 15.9489C192.522 15.9489 193.504 16.1856 194.323 16.6591C195.147 17.1278 195.779 17.786 196.22 18.6335C196.665 19.4763 196.887 20.4588 196.887 21.581C196.887 22.6984 196.665 23.6809 196.22 24.5284C195.779 25.3712 195.147 26.0294 194.323 26.5028C193.504 26.9716 192.522 27.206 191.376 27.206ZM191.397 24.5852C191.814 24.5852 192.167 24.4574 192.455 24.2017C192.744 23.946 192.964 23.5909 193.116 23.1364C193.272 22.6818 193.35 22.1562 193.35 21.5597C193.35 20.9536 193.272 20.4233 193.116 19.9688C192.964 19.5142 192.744 19.1591 192.455 18.9034C192.167 18.6477 191.814 18.5199 191.397 18.5199C190.966 18.5199 190.602 18.6477 190.303 18.9034C190.01 19.1591 189.785 19.5142 189.629 19.9688C189.477 20.4233 189.401 20.9536 189.401 21.5597C189.401 22.1562 189.477 22.6818 189.629 23.1364C189.785 23.5909 190.01 23.946 190.303 24.2017C190.602 24.4574 190.966 24.5852 191.397 24.5852ZM211.806 17.7244H208.254C208.207 17.3598 208.11 17.0308 207.963 16.7372C207.816 16.4437 207.622 16.1927 207.381 15.9844C207.139 15.776 206.853 15.6174 206.521 15.5085C206.195 15.3949 205.832 15.3381 205.435 15.3381C204.729 15.3381 204.121 15.5109 203.609 15.8565C203.103 16.2022 202.712 16.7017 202.438 17.3551C202.168 18.0085 202.033 18.7992 202.033 19.7273C202.033 20.6932 202.17 21.5028 202.445 22.1562C202.724 22.8049 203.115 23.295 203.617 23.6264C204.123 23.9531 204.722 24.1165 205.413 24.1165C205.802 24.1165 206.154 24.0668 206.472 23.9673C206.794 23.8679 207.075 23.7235 207.317 23.5341C207.563 23.34 207.764 23.1056 207.921 22.831C208.082 22.5516 208.193 22.2367 208.254 21.8864L211.806 21.9077C211.744 22.5516 211.557 23.1861 211.244 23.8111C210.937 24.4361 210.513 25.0066 209.973 25.5227C209.433 26.0341 208.775 26.4413 207.999 26.7443C207.227 27.0473 206.341 27.1989 205.342 27.1989C204.026 27.1989 202.847 26.91 201.806 26.3324C200.769 25.75 199.949 24.9025 199.348 23.7898C198.747 22.6771 198.446 21.3229 198.446 19.7273C198.446 18.1269 198.752 16.7704 199.362 15.6577C199.973 14.545 200.799 13.6998 201.841 13.1222C202.883 12.5445 204.05 12.2557 205.342 12.2557C206.223 12.2557 207.038 12.3788 207.786 12.625C208.534 12.8665 209.192 13.2216 209.76 13.6903C210.328 14.1544 210.79 14.7249 211.145 15.402C211.5 16.0791 211.72 16.8532 211.806 17.7244ZM218.846 27.206C217.7 27.206 216.715 26.9716 215.891 26.5028C215.072 26.0294 214.44 25.3712 213.995 24.5284C213.554 23.6809 213.334 22.6984 213.334 21.581C213.334 20.4588 213.554 19.4763 213.995 18.6335C214.44 17.786 215.072 17.1278 215.891 16.6591C216.715 16.1856 217.7 15.9489 218.846 15.9489C219.991 15.9489 220.974 16.1856 221.793 16.6591C222.617 17.1278 223.249 17.786 223.689 18.6335C224.134 19.4763 224.357 20.4588 224.357 21.581C224.357 22.6984 224.134 23.6809 223.689 24.5284C223.249 25.3712 222.617 26.0294 221.793 26.5028C220.974 26.9716 219.991 27.206 218.846 27.206ZM218.867 24.5852C219.284 24.5852 219.636 24.4574 219.925 24.2017C220.214 23.946 220.434 23.5909 220.586 23.1364C220.742 22.6818 220.82 22.1562 220.82 21.5597C220.82 20.9536 220.742 20.4233 220.586 19.9688C220.434 19.5142 220.214 19.1591 219.925 18.9034C219.636 18.6477 219.284 18.5199 218.867 18.5199C218.436 18.5199 218.071 18.6477 217.773 18.9034C217.48 19.1591 217.255 19.5142 217.098 19.9688C216.947 20.4233 216.871 20.9536 216.871 21.5597C216.871 22.1562 216.947 22.6818 217.098 23.1364C217.255 23.5909 217.48 23.946 217.773 24.2017C218.071 24.4574 218.436 24.5852 218.867 24.5852ZM226.072 27V16.0909H229.375V18.0938H229.495C229.723 17.4309 230.106 16.9077 230.646 16.5241C231.186 16.1406 231.83 15.9489 232.578 15.9489C233.335 15.9489 233.984 16.143 234.524 16.5312C235.064 16.9195 235.407 17.4403 235.554 18.0938H235.667C235.871 17.4451 236.269 16.9266 236.86 16.5384C237.452 16.1454 238.151 15.9489 238.956 15.9489C239.988 15.9489 240.826 16.2803 241.47 16.9432C242.114 17.6013 242.436 18.5057 242.436 19.6562V27H238.963V20.4517C238.963 19.9072 238.823 19.4929 238.544 19.2088C238.264 18.92 237.902 18.7756 237.457 18.7756C236.979 18.7756 236.602 18.9318 236.328 19.2443C236.058 19.5521 235.923 19.9664 235.923 20.4872V27H232.585V20.4162C232.585 19.9096 232.448 19.5095 232.173 19.2159C231.898 18.9223 231.536 18.7756 231.086 18.7756C230.783 18.7756 230.516 18.849 230.284 18.9957C230.052 19.1378 229.869 19.3414 229.737 19.6065C229.609 19.8717 229.545 20.1842 229.545 20.544V27H226.072ZM244.524 31.0909V16.0909H247.961V17.9588H248.068C248.21 17.6274 248.411 17.3078 248.671 17C248.937 16.6922 249.273 16.4413 249.68 16.2472C250.092 16.0483 250.584 15.9489 251.157 15.9489C251.915 15.9489 252.623 16.1477 253.281 16.5455C253.944 16.9432 254.479 17.5563 254.886 18.3849C255.293 19.2135 255.497 20.2694 255.497 21.5526C255.497 22.7884 255.3 23.8229 254.907 24.6562C254.519 25.4896 253.993 26.1146 253.33 26.5312C252.672 26.9479 251.941 27.1562 251.136 27.1562C250.587 27.1562 250.111 27.0663 249.708 26.8864C249.306 26.7064 248.967 26.4697 248.693 26.1761C248.423 25.8826 248.214 25.5677 248.068 25.2315H247.997V31.0909H244.524ZM247.926 21.5455C247.926 22.1326 248.004 22.6439 248.16 23.0795C248.321 23.5152 248.551 23.8537 248.849 24.0952C249.152 24.3319 249.514 24.4503 249.936 24.4503C250.362 24.4503 250.724 24.3319 251.022 24.0952C251.321 23.8537 251.545 23.5152 251.697 23.0795C251.853 22.6439 251.931 22.1326 251.931 21.5455C251.931 20.9583 251.853 20.4493 251.697 20.0185C251.545 19.5876 251.321 19.2538 251.022 19.017C250.729 18.7803 250.366 18.6619 249.936 18.6619C249.509 18.6619 249.147 18.7779 248.849 19.0099C248.551 19.242 248.321 19.5734 248.16 20.0043C248.004 20.4351 247.926 20.9489 247.926 21.5455ZM262.345 27.206C261.199 27.206 260.214 26.9716 259.39 26.5028C258.571 26.0294 257.939 25.3712 257.494 24.5284C257.054 23.6809 256.834 22.6984 256.834 21.581C256.834 20.4588 257.054 19.4763 257.494 18.6335C257.939 17.786 258.571 17.1278 259.39 16.6591C260.214 16.1856 261.199 15.9489 262.345 15.9489C263.491 15.9489 264.473 16.1856 265.292 16.6591C266.116 17.1278 266.748 17.786 267.189 18.6335C267.634 19.4763 267.856 20.4588 267.856 21.581C267.856 22.6984 267.634 23.6809 267.189 24.5284C266.748 25.3712 266.116 26.0294 265.292 26.5028C264.473 26.9716 263.491 27.206 262.345 27.206ZM262.366 24.5852C262.783 24.5852 263.136 24.4574 263.425 24.2017C263.713 23.946 263.934 23.5909 264.085 23.1364C264.241 22.6818 264.319 22.1562 264.319 21.5597C264.319 20.9536 264.241 20.4233 264.085 19.9688C263.934 19.5142 263.713 19.1591 263.425 18.9034C263.136 18.6477 262.783 18.5199 262.366 18.5199C261.935 18.5199 261.571 18.6477 261.273 18.9034C260.979 19.1591 260.754 19.5142 260.598 19.9688C260.446 20.4233 260.371 20.9536 260.371 21.5597C260.371 22.1562 260.446 22.6818 260.598 23.1364C260.754 23.5909 260.979 23.946 261.273 24.2017C261.571 24.4574 261.935 24.5852 262.366 24.5852ZM276.61 22.2912V16.0909H280.076V27H276.766V24.9688H276.652C276.411 25.6364 275.999 26.1667 275.417 26.5597C274.839 26.9479 274.141 27.142 273.321 27.142C272.578 27.142 271.925 26.9716 271.361 26.6307C270.798 26.2898 270.36 25.8139 270.047 25.2031C269.735 24.5876 269.576 23.8679 269.571 23.044V16.0909H273.044V22.3622C273.049 22.9541 273.205 23.4205 273.513 23.7614C273.821 24.1023 274.24 24.2727 274.77 24.2727C275.116 24.2727 275.426 24.197 275.701 24.0455C275.98 23.8892 276.2 23.6643 276.361 23.3707C276.527 23.0724 276.61 22.7126 276.61 22.2912ZM285.695 20.7784V27H282.222V16.0909H285.525V18.0938H285.646C285.887 17.4261 286.299 16.9029 286.881 16.5241C287.464 16.1406 288.157 15.9489 288.962 15.9489C289.729 15.9489 290.395 16.1217 290.958 16.4673C291.526 16.8082 291.967 17.2865 292.279 17.902C292.596 18.5128 292.753 19.2277 292.748 20.0469V27H289.275V20.7287C289.28 20.1226 289.126 19.6491 288.813 19.3082C288.505 18.9673 288.077 18.7969 287.528 18.7969C287.163 18.7969 286.841 18.8774 286.562 19.0384C286.287 19.1946 286.074 19.4195 285.923 19.7131C285.776 20.0066 285.7 20.3617 285.695 20.7784ZM298.818 27.1562C298.014 27.1562 297.282 26.9479 296.624 26.5312C295.966 26.1146 295.44 25.4896 295.047 24.6562C294.654 23.8229 294.458 22.7884 294.458 21.5526C294.458 20.2694 294.661 19.2135 295.068 18.3849C295.476 17.5563 296.008 16.9432 296.666 16.5455C297.329 16.1477 298.042 15.9489 298.804 15.9489C299.377 15.9489 299.867 16.0483 300.274 16.2472C300.682 16.4413 301.018 16.6922 301.283 17C301.548 17.3078 301.749 17.6274 301.887 17.9588H301.958V12.4545H305.431V27H301.993V25.2315H301.887C301.74 25.5677 301.532 25.8826 301.262 26.1761C300.992 26.4697 300.653 26.7064 300.246 26.8864C299.844 27.0663 299.368 27.1562 298.818 27.1562ZM300.026 24.4503C300.447 24.4503 300.807 24.3319 301.105 24.0952C301.404 23.8537 301.633 23.5152 301.794 23.0795C301.955 22.6439 302.036 22.1326 302.036 21.5455C302.036 20.9489 301.955 20.4351 301.794 20.0043C301.638 19.5734 301.408 19.242 301.105 19.0099C300.807 18.7779 300.447 18.6619 300.026 18.6619C299.595 18.6619 299.23 18.7803 298.932 19.017C298.634 19.2538 298.407 19.5876 298.25 20.0185C298.099 20.4493 298.023 20.9583 298.023 21.5455C298.023 22.1326 298.101 22.6439 298.257 23.0795C298.414 23.5152 298.639 23.8537 298.932 24.0952C299.23 24.3319 299.595 24.4503 300.026 24.4503ZM312.662 27.206C311.521 27.206 310.537 26.9811 309.708 26.5312C308.884 26.0767 308.25 25.4304 307.805 24.5923C307.364 23.7495 307.144 22.7481 307.144 21.5881C307.144 20.4612 307.367 19.4763 307.812 18.6335C308.257 17.786 308.884 17.1278 309.694 16.6591C310.503 16.1856 311.457 15.9489 312.556 15.9489C313.332 15.9489 314.043 16.0696 314.687 16.3111C315.331 16.5526 315.887 16.91 316.356 17.3835C316.824 17.857 317.189 18.4418 317.449 19.1378C317.71 19.8291 317.84 20.6222 317.84 21.517V22.3835H308.358V20.3665H314.608C314.604 19.9972 314.516 19.6681 314.346 19.3793C314.175 19.0904 313.941 18.8655 313.643 18.7045C313.349 18.5388 313.01 18.456 312.627 18.456C312.239 18.456 311.891 18.5436 311.583 18.7188C311.275 18.8892 311.031 19.1236 310.851 19.4219C310.671 19.7154 310.577 20.0492 310.567 20.4233V22.4759C310.567 22.9209 310.655 23.3116 310.83 23.6477C311.005 23.9792 311.254 24.2372 311.576 24.4219C311.898 24.6065 312.281 24.6989 312.726 24.6989C313.034 24.6989 313.314 24.6562 313.564 24.571C313.815 24.4858 314.031 24.3603 314.211 24.1946C314.391 24.0289 314.526 23.8253 314.616 23.5838L317.805 23.6761C317.672 24.3911 317.381 25.0137 316.931 25.544C316.486 26.0696 315.901 26.4792 315.177 26.7727C314.452 27.0616 313.614 27.206 312.662 27.206ZM319.55 27V16.0909H322.923V18.0795H323.037C323.236 17.3598 323.56 16.8248 324.01 16.4744C324.46 16.1193 324.983 15.9418 325.58 15.9418C325.741 15.9418 325.906 15.9536 326.077 15.9773C326.247 15.9962 326.406 16.027 326.553 16.0696V19.0881C326.387 19.0312 326.169 18.9863 325.899 18.9531C325.634 18.92 325.397 18.9034 325.189 18.9034C324.777 18.9034 324.405 18.9957 324.074 19.1804C323.747 19.3603 323.489 19.6136 323.3 19.9403C323.115 20.2623 323.023 20.6411 323.023 21.0767V27H319.55Z" fill="#494949"/>
<defs>
<linearGradient id="paint0_linear_38_529" x1="20" y1="0" x2="20" y2="20" gradientUnits="userSpaceOnUse">
<stop stop-color="#9DFFDC"/>
<stop offset="1" stop-color="#D1C1FF"/>
</linearGradient>
<linearGradient id="paint1_linear_38_529" x1="20" y1="31" x2="20" y2="11" gradientUnits="userSpaceOnUse">
<stop stop-color="#61F7C1"/>
<stop offset="1" stop-color="#A889FF"/>
</linearGradient>
<linearGradient id="paint2_linear_38_529" x1="20" y1="40" x2="20" y2="20" gradientUnits="userSpaceOnUse">
<stop stop-color="#FF87D6"/>
<stop offset="1" stop-color="#C5FFAA"/>
</linearGradient>
<clipPath id="clip0_38_529">
<rect width="40" height="40" rx="16" fill="white"/>
</clipPath>
</defs>
</svg>
