<svg width="16" height="16" viewBox="0 0 16 16" fill="none" xmlns="http://www.w3.org/2000/svg">
<path d="M8.00033 2.66659C9.0988 2.66659 10.0003 3.56811 10.0003 4.66659V6.66659H6.00033V4.66659C6.00033 3.56811 6.90185 2.66659 8.00033 2.66659ZM11.3337 6.66659V4.66659C11.3337 2.83173 9.83518 1.33325 8.00033 1.33325C6.16547 1.33325 4.66699 2.83173 4.66699 4.66659V6.66659H4.00033C3.26395 6.66659 2.66699 7.26354 2.66699 7.99992V13.3333C2.66699 14.0696 3.26395 14.6666 4.00033 14.6666H12.0003C12.7367 14.6666 13.3337 14.0696 13.3337 13.3333V7.99992C13.3337 7.26354 12.7367 6.66659 12.0003 6.66659H11.3337ZM4.00033 7.99992H12.0003V13.3333H4.00033V7.99992Z" fill="#C7C7C7"/>
</svg>
