<svg width="40" height="40" viewBox="0 0 40 40" fill="none" xmlns="http://www.w3.org/2000/svg">
<g clip-path="url(#clip0_89_1622)">
<path d="M20 0C20 14 6.66667 19.1667 0 20H40C24.8 20 20.3333 6.66667 20 0Z" fill="url(#paint0_linear_89_1622)"/>
<path d="M20 31C20 17 33.3333 11.8333 40 11L1.74846e-06 11C15.2 11 19.6667 24.3333 20 31Z" fill="url(#paint1_linear_89_1622)"/>
<path d="M20 40C20 26 6.66666 20.8333 -1.74846e-06 20L40 20C24.8 20 20.3333 33.3333 20 40Z" fill="url(#paint2_linear_89_1622)"/>
</g>
<defs>
<linearGradient id="paint0_linear_89_1622" x1="20" y1="0" x2="20" y2="20" gradientUnits="userSpaceOnUse">
<stop stop-color="#9DFFDC"/>
<stop offset="1" stop-color="#D1C1FF"/>
</linearGradient>
<linearGradient id="paint1_linear_89_1622" x1="20" y1="31" x2="20" y2="11" gradientUnits="userSpaceOnUse">
<stop stop-color="#61F7C1"/>
<stop offset="1" stop-color="#A889FF"/>
</linearGradient>
<linearGradient id="paint2_linear_89_1622" x1="20" y1="40" x2="20" y2="20" gradientUnits="userSpaceOnUse">
<stop stop-color="#FF87D6"/>
<stop offset="1" stop-color="#C5FFAA"/>
</linearGradient>
<clipPath id="clip0_89_1622">
<rect width="40" height="40" fill="white"/>
</clipPath>
</defs>
</svg>
