<svg width="20" height="20" viewBox="0 0 20 20" fill="none" xmlns="http://www.w3.org/2000/svg">
<path d="M10.0003 3.33325C10.2213 3.33325 10.4333 3.42105 10.5896 3.57733L15.5896 8.57733C15.915 8.90277 15.915 9.4304 15.5896 9.75584C15.2641 10.0813 14.7365 10.0813 14.4111 9.75584L10.8337 6.17843L10.8337 15.8333C10.8337 16.2935 10.4606 16.6666 10.0003 16.6666C9.54009 16.6666 9.16699 16.2935 9.16699 15.8333L9.16699 6.17843L5.58958 9.75584C5.26414 10.0813 4.73651 10.0813 4.41107 9.75584C4.08563 9.4304 4.08563 8.90277 4.41107 8.57733L9.41107 3.57733C9.56735 3.42105 9.77931 3.33325 10.0003 3.33325Z" fill="#91FF76"/>
</svg>
